# Hierarchical Translation and Rotation (.htr) file
# Generated by EVaRT
[Header]
FileType htr
DataType HTRS
FileVersion 1
NumSegments 23
NumFrames 7
DataFrameRate 120
EulerRotationOrder ZYX
CalibrationUnits mm
RotationUnits Degrees
GlobalAxisofGravity Y
BoneLengthAxis Y
ScaleFactor 1
[SegmentNames&Hierarchy]
#CHILD            PARENT
DaveRoot          GLOBAL
Spine1            DaveRoot
Spine2            Spine1
Spine3            Spine2
Spine4            Spine3
Neck              Spine4
Head              Neck
LClavicle         Spine4
LUpperArm         LClavicle
LLowerArm         LUpperArm
LHand             LLowerArm
RClavicle         Spine4
RUpperArm         RClavicle
RLowerArm         RUpperArm
RHand             RLowerArm
RUpperLeg         DaveRoot
RLowerLeg         RUpperLeg
RFoot             RLowerLeg
RToes             RFoot
LUpperLeg         DaveRoot
LLowerLeg         LUpperLeg
LFoot             LLowerLeg
LToes             LFoot
[BasePosition]
#SegmentName      Tx   Ty   Tz   Rx   Ry   Rz   BoneLength
DaveRoot          30.502683	1014.050144	-392.030244	16.346492	-1.112010	-1.464339	100.000000
Spine1            0.000000	100.000000	0.000000	-16.708095	0.289044	-0.213389	100.000000
Spine2            0.000000	100.000000	0.000000	4.757952	0.249599	-0.116624	100.000000
Spine3            0.000000	100.000000	0.000000	11.084253	0.260929	-0.088411	100.000000
Spine4            0.000000	100.000000	0.000000	12.228282	1.332274	1.443083	100.000000
Neck              0.000000	100.000000	0.000000	10.147668	18.171820	1.381874	80.000000
Head              0.000000	80.000000	0.000000	-46.518491	-1.401195	-5.185409	200.000000
LClavicle         0.000000	100.000000	0.000000	-3.689620	-1.992124	-101.831237	200.000000
LUpperArm         0.000000	200.000000	0.000000	-0.284445	-3.207106	1.762499	300.000000
LLowerArm         0.000000	300.000000	0.000000	9.834184	2.175812	1.895763	200.000000
LHand             0.000000	200.000000	0.000000	-2.090742	-1.768569	8.793625	120.000000
RClavicle         0.000000	100.000000	0.000000	-0.558465	-3.870894	107.984856	200.000000
RUpperArm         0.000000	200.000000	0.000000	6.860362	-6.098052	-15.811317	300.000000
RLowerArm         0.000000	300.000000	0.000000	5.698581	-3.682026	-7.348670	200.000000
RHand             0.000000	200.000000	0.000000	-4.626921	6.468423	-3.971303	120.000000
RUpperLeg         -115.911102	-10.000000	31.058285	22.974686	25.481186	-170.503396	530.000000
RLowerLeg         0.000000	530.000000	0.000000	-7.725558	0.479387	-2.520024	460.000000
RFoot             0.000000	460.000000	0.000000	81.786251	-5.006629	-0.462861	130.000000
RToes             0.000000	130.000000	0.000000	20.181248	0.005479	-0.002881	100.000000
LUpperLeg         115.911102	-10.000000	31.058285	21.582405	10.065134	-177.228489	530.000000
LLowerLeg         0.000000	530.000000	0.000000	-4.243927	-3.275937	3.046484	460.000000
LFoot             0.000000	460.000000	0.000000	77.706358	-14.203819	16.055021	130.000000
LToes             0.000000	130.000000	0.000000	27.168776	-0.000000	-0.000086	100.000000
#Beginning of Data.
[DaveRoot]
#Fr	Tx	Ty	Tz	Rx	Ry	Rz	SF
1028	107.529514	-481.416716	236.538912	-45.314188	72.706714	-89.106506	1.000000	
1029	107.381899	-484.625412	236.777917	-44.449061	72.840811	-88.436732	1.000000	
1030	108.781916	-485.126174	236.555706	-44.438859	72.806449	-88.623233	1.000000	
1031	108.654445	-488.116528	236.782136	-43.534399	72.917787	-87.929046	1.000000	
1032	110.040664	-488.455914	236.536568	-43.468929	72.872796	-88.056506	1.000000	
1033	110.523638	-490.353117	236.589191	-42.363851	72.950761	-87.361098	1.000000	
1034	110.840216	-491.905193	236.582101	-41.705556	73.018866	-86.823120	1.000000	
[Spine1]
#Fr	Tx	Ty	Tz	Rx	Ry	Rz	SF
1028	0.000000	0.000000	0.000000	5.831734	0.198232	-1.000267	1.000000	
1029	0.000000	0.000000	0.000000	5.439030	0.434587	-1.140749	1.000000	
1030	0.000000	0.000000	0.000000	5.956995	0.207091	-1.036085	1.000000	
1031	0.000000	0.000000	0.000000	5.551987	0.430508	-1.182105	1.000000	
1032	0.000000	0.000000	0.000000	6.058981	0.207218	-1.081206	1.000000	
1033	0.000000	0.000000	0.000000	5.768338	0.356415	-1.195936	1.000000	
1034	0.000000	0.000000	0.000000	5.814898	0.430429	-1.252256	1.000000	
[Spine2]
#Fr	Tx	Ty	Tz	Rx	Ry	Rz	SF
1028	0.000000	0.000000	0.000000	5.831734	0.198232	-1.000267	1.000000	
1029	0.000000	0.000000	0.000000	5.439030	0.434587	-1.140749	1.000000	
1030	0.000000	0.000000	0.000000	5.956995	0.207091	-1.036085	1.000000	
1031	0.000000	0.000000	0.000000	5.551987	0.430508	-1.182105	1.000000	
1032	0.000000	0.000000	0.000000	6.058981	0.207218	-1.081206	1.000000	
1033	0.000000	0.000000	0.000000	5.768338	0.356415	-1.195936	1.000000	
1034	0.000000	0.000000	0.000000	5.814898	0.430429	-1.252256	1.000000	
[Spine3]
#Fr	Tx	Ty	Tz	Rx	Ry	Rz	SF
1028	0.000000	0.000000	0.000000	5.831734	0.198232	-1.000267	1.000000	
1029	0.000000	0.000000	0.000000	5.439030	0.434587	-1.140749	1.000000	
1030	0.000000	0.000000	0.000000	5.956995	0.207091	-1.036085	1.000000	
1031	0.000000	0.000000	0.000000	5.551987	0.430508	-1.182105	1.000000	
1032	0.000000	0.000000	0.000000	6.058981	0.207218	-1.081206	1.000000	
1033	0.000000	0.000000	0.000000	5.768338	0.356415	-1.195936	1.000000	
1034	0.000000	0.000000	0.000000	5.814898	0.430429	-1.252256	1.000000	
[Spine4]
#Fr	Tx	Ty	Tz	Rx	Ry	Rz	SF
1028	0.000000	0.000000	0.000000	5.831734	0.198232	-1.000267	1.000000	
1029	0.000000	0.000000	0.000000	5.439030	0.434587	-1.140749	1.000000	
1030	0.000000	0.000000	0.000000	5.956995	0.207091	-1.036085	1.000000	
1031	0.000000	0.000000	0.000000	5.551987	0.430508	-1.182105	1.000000	
1032	0.000000	0.000000	0.000000	6.058981	0.207218	-1.081206	1.000000	
1033	0.000000	0.000000	0.000000	5.768338	0.356415	-1.195936	1.000000	
1034	0.000000	0.000000	0.000000	5.814898	0.430429	-1.252256	1.000000	
[Neck]
#Fr	Tx	Ty	Tz	Rx	Ry	Rz	SF
1028	0.000000	0.000000	0.000000	-28.060254	-7.065564	-5.665975	1.000000	
1029	0.000000	0.000000	0.000000	-26.902627	-6.919225	-4.831995	1.000000	
1030	0.000000	0.000000	0.000000	-28.429376	-7.138168	-5.496888	1.000000	
1031	0.000000	0.000000	0.000000	-27.254711	-6.889677	-4.696697	1.000000	
1032	0.000000	0.000000	0.000000	-28.724729	-7.092187	-5.357821	1.000000	
1033	0.000000	0.000000	0.000000	-28.149999	-6.986924	-4.796195	1.000000	
1034	0.000000	0.000000	0.000000	-28.136288	-7.097162	-4.597050	1.000000	
[Head]
#Fr	Tx	Ty	Tz	Rx	Ry	Rz	SF
1028	0.000000	0.000000	0.000000	-28.060254	-7.065564	-5.665975	1.000000	
1029	0.000000	0.000000	0.000000	-26.902627	-6.919225	-4.831995	1.000000	
1030	0.000000	0.000000	0.000000	-28.429376	-7.138168	-5.496888	1.000000	
1031	0.000000	0.000000	0.000000	-27.254711	-6.889677	-4.696697	1.000000	
1032	0.000000	0.000000	0.000000	-28.724729	-7.092187	-5.357821	1.000000	
1033	0.000000	0.000000	0.000000	-28.149999	-6.986924	-4.796195	1.000000	
1034	0.000000	0.000000	0.000000	-28.136288	-7.097162	-4.597050	1.000000	
[LClavicle]
#Fr	Tx	Ty	Tz	Rx	Ry	Rz	SF
1028	0.000000	0.000000	0.000000	22.366342	-3.263796	5.247968	1.000000	
1029	0.000000	0.000000	0.000000	30.999652	-5.922405	7.114577	1.000000	
1030	0.000000	0.000000	0.000000	22.222615	-3.396143	5.620736	1.000000	
1031	0.000000	0.000000	0.000000	30.623548	-6.034239	7.440449	1.000000	
1032	0.000000	0.000000	0.000000	21.806270	-3.458399	5.944532	1.000000	
1033	0.000000	0.000000	0.000000	27.248644	-4.520544	6.071560	1.000000	
1034	0.000000	0.000000	0.000000	28.483506	-5.289617	7.013506	1.000000	
[LUpperArm]
#Fr	Tx	Ty	Tz	Rx	Ry	Rz	SF
1028	0.000000	0.000000	0.000000	63.721702	-17.521286	-61.351382	1.000000	
1029	0.000000	0.000000	0.000000	48.047750	-28.188707	-68.184251	1.000000	
1030	0.000000	0.000000	0.000000	64.219437	-17.599425	-61.465925	1.000000	
1031	0.000000	0.000000	0.000000	48.722177	-28.154006	-68.585444	1.000000	
1032	0.000000	0.000000	0.000000	64.921978	-17.458712	-61.445678	1.000000	
1033	0.000000	0.000000	0.000000	55.753224	-20.286734	-57.879060	1.000000	
1034	0.000000	0.000000	0.000000	53.398155	-23.069398	-62.518801	1.000000	
[LLowerArm]
#Fr	Tx	Ty	Tz	Rx	Ry	Rz	SF
1028	0.000000	0.000000	0.000000	1.879110	0.000000	0.000000	1.000000	
1029	0.000000	0.000000	0.000000	31.186143	0.000000	0.000000	1.000000	
1030	0.000000	0.000000	0.000000	1.373209	0.000000	0.000000	1.000000	
1031	0.000000	0.000000	0.000000	30.991079	0.000000	0.000000	1.000000	
1032	0.000000	0.000000	0.000000	0.508533	0.000000	0.000000	1.000000	
1033	0.000000	0.000000	0.000000	8.315593	0.000000	0.000000	1.000000	
1034	0.000000	0.000000	0.000000	16.645430	0.000000	0.000000	1.000000	
[LHand]
#Fr	Tx	Ty	Tz	Rx	Ry	Rz	SF
1028	0.000000	0.000000	0.000000	20.406814	-0.000000	-0.000000	1.000000	
1029	0.000000	0.000000	0.000000	-1.907227	-0.000000	-0.000000	1.000000	
1030	0.000000	0.000000	0.000000	20.658386	-0.000000	-0.000000	1.000000	
1031	0.000000	0.000000	0.000000	-2.090503	-0.000000	-0.000000	1.000000	
1032	0.000000	0.000000	0.000000	21.028534	0.000000	-0.000000	1.000000	
1033	0.000000	0.000000	0.000000	14.352199	-0.000000	-0.000000	1.000000	
1034	0.000000	0.000000	0.000000	7.755968	-0.000000	-0.000000	1.000000	
[RClavicle]
#Fr	Tx	Ty	Tz	Rx	Ry	Rz	SF
1028	0.000000	0.000000	0.000000	11.677116	2.107158	-10.273806	1.000000	
1029	0.000000	0.000000	0.000000	13.974145	2.645342	-10.693216	1.000000	
1030	0.000000	0.000000	0.000000	11.781633	2.149839	-10.381845	1.000000	
1031	0.000000	0.000000	0.000000	14.174500	2.700947	-10.754633	1.000000	
1032	0.000000	0.000000	0.000000	12.014066	2.204506	-10.431760	1.000000	
1033	0.000000	0.000000	0.000000	13.377169	2.432471	-10.304975	1.000000	
1034	0.000000	0.000000	0.000000	13.349093	2.456974	-10.426531	1.000000	
[RUpperArm]
#Fr	Tx	Ty	Tz	Rx	Ry	Rz	SF
1028	0.000000	0.000000	0.000000	51.504868	62.076370	19.459063	1.000000	
1029	0.000000	0.000000	0.000000	43.905422	61.980852	17.078086	1.000000	
1030	0.000000	0.000000	0.000000	50.609307	62.155321	18.163924	1.000000	
1031	0.000000	0.000000	0.000000	42.966823	61.960589	15.740945	1.000000	
1032	0.000000	0.000000	0.000000	49.637502	62.158072	16.793042	1.000000	
1033	0.000000	0.000000	0.000000	45.259884	61.725857	14.829461	1.000000	
1034	0.000000	0.000000	0.000000	45.276845	61.967515	15.214501	1.000000	
[RLowerArm]
#Fr	Tx	Ty	Tz	Rx	Ry	Rz	SF
1028	0.000000	0.000000	0.000000	21.583756	0.000000	0.000000	1.000000	
1029	0.000000	0.000000	0.000000	27.894144	0.000000	0.000000	1.000000	
1030	0.000000	0.000000	0.000000	21.137737	0.000000	0.000000	1.000000	
1031	0.000000	0.000000	0.000000	27.640721	0.000000	0.000000	1.000000	
1032	0.000000	0.000000	0.000000	20.731664	0.000000	0.000000	1.000000	
1033	0.000000	0.000000	0.000000	23.715024	0.000000	0.000000	1.000000	
1034	0.000000	0.000000	0.000000	24.007733	0.000000	0.000000	1.000000	
[RHand]
#Fr	Tx	Ty	Tz	Rx	Ry	Rz	SF
1028	0.000000	0.000000	0.000000	29.069937	46.852891	12.378282	1.000000	
1029	0.000000	0.000000	0.000000	18.730806	48.969305	6.796599	1.000000	
1030	0.000000	0.000000	0.000000	29.604707	47.281864	12.836990	1.000000	
1031	0.000000	0.000000	0.000000	18.761099	49.573763	6.849818	1.000000	
1032	0.000000	0.000000	0.000000	30.168262	47.755808	13.327585	1.000000	
1033	0.000000	0.000000	0.000000	25.078105	48.983246	10.778541	1.000000	
1034	0.000000	0.000000	0.000000	24.367584	48.932998	10.266658	1.000000	
[RUpperLeg]
#Fr	Tx	Ty	Tz	Rx	Ry	Rz	SF
1028	0.000000	0.000000	0.000000	100.395777	5.137913	13.522854	1.000000	
1029	0.000000	0.000000	0.000000	101.027239	4.861985	13.427817	1.000000	
1030	0.000000	0.000000	0.000000	101.180135	4.955951	13.548781	1.000000	
1031	0.000000	0.000000	0.000000	101.825239	4.700782	13.522324	1.000000	
1032	0.000000	0.000000	0.000000	101.985265	4.806785	13.677591	1.000000	
1033	0.000000	0.000000	0.000000	102.678936	4.585688	13.804195	1.000000	
1034	0.000000	0.000000	0.000000	103.053660	4.485437	13.791779	1.000000	
[RLowerLeg]
#Fr	Tx	Ty	Tz	Rx	Ry	Rz	SF
1028	0.000000	0.000000	0.000000	-109.465929	-0.000000	0.000000	1.000000	
1029	0.000000	0.000000	0.000000	-109.869275	-0.000000	0.000000	1.000000	
1030	0.000000	0.000000	0.000000	-110.003934	0.000000	0.000000	1.000000	
1031	0.000000	0.000000	0.000000	-110.396872	0.000000	0.000000	1.000000	
1032	0.000000	0.000000	0.000000	-110.531855	-0.000000	0.000000	1.000000	
1033	0.000000	0.000000	0.000000	-110.831260	-0.000000	0.000000	1.000000	
1034	0.000000	0.000000	0.000000	-111.076422	0.000000	0.000000	1.000000	
[RFoot]
#Fr	Tx	Ty	Tz	Rx	Ry	Rz	SF
1028	0.000000	0.000000	0.000000	35.670153	21.364978	-15.558642	1.000000	
1029	0.000000	0.000000	0.000000	35.616363	21.314180	-15.745234	1.000000	
1030	0.000000	0.000000	0.000000	35.314523	20.840400	-16.138697	1.000000	
1031	0.000000	0.000000	0.000000	35.299370	20.985457	-16.160400	1.000000	
1032	0.000000	0.000000	0.000000	35.148278	20.843583	-16.228149	1.000000	
1033	0.000000	0.000000	0.000000	35.209758	21.095898	-16.008126	1.000000	
1034	0.000000	0.000000	0.000000	35.333938	21.370659	-15.685566	1.000000	
[RToes]
#Fr	Tx	Ty	Tz	Rx	Ry	Rz	SF
1028	0.000000	0.000000	0.000000	-21.258629	-0.000000	0.000000	1.000000	
1029	0.000000	0.000000	0.000000	-21.137620	-0.000000	0.000000	1.000000	
1030	0.000000	0.000000	0.000000	-20.376912	0.000000	0.000000	1.000000	
1031	0.000000	0.000000	0.000000	-20.394457	-0.000000	0.000000	1.000000	
1032	0.000000	0.000000	0.000000	-20.013972	-0.000000	0.000000	1.000000	
1033	0.000000	0.000000	0.000000	-20.240239	-0.000000	0.000000	1.000000	
1034	0.000000	0.000000	0.000000	-20.582182	-0.000000	0.000000	1.000000	
[LUpperLeg]
#Fr	Tx	Ty	Tz	Rx	Ry	Rz	SF
1028	0.000000	0.000000	0.000000	103.366444	-41.509607	-6.708667	1.000000	
1029	0.000000	0.000000	0.000000	103.949643	-41.649784	-7.080381	1.000000	
1030	0.000000	0.000000	0.000000	104.116648	-41.649773	-7.135159	1.000000	
1031	0.000000	0.000000	0.000000	104.733082	-41.820062	-7.505819	1.000000	
1032	0.000000	0.000000	0.000000	104.903986	-41.845025	-7.549485	1.000000	
1033	0.000000	0.000000	0.000000	105.656091	-41.994045	-8.018835	1.000000	
1034	0.000000	0.000000	0.000000	105.973507	-42.122408	-8.244502	1.000000	
[LLowerLeg]
#Fr	Tx	Ty	Tz	Rx	Ry	Rz	SF
1028	0.000000	0.000000	0.000000	-111.474281	-0.000000	-0.000000	1.000000	
1029	0.000000	0.000000	0.000000	-111.819088	-0.000000	-0.000000	1.000000	
1030	0.000000	0.000000	0.000000	-111.952864	-0.000000	-0.000000	1.000000	
1031	0.000000	0.000000	0.000000	-112.300943	-0.000000	-0.000000	1.000000	
1032	0.000000	0.000000	0.000000	-112.437561	-0.000000	-0.000000	1.000000	
1033	0.000000	0.000000	0.000000	-112.705766	-0.000000	-0.000000	1.000000	
1034	0.000000	0.000000	0.000000	-112.917376	-0.000000	-0.000000	1.000000	
[LFoot]
#Fr	Tx	Ty	Tz	Rx	Ry	Rz	SF
1028	0.000000	0.000000	0.000000	36.743487	-6.970573	-12.955923	1.000000	
1029	0.000000	0.000000	0.000000	36.784435	-6.817776	-12.810259	1.000000	
1030	0.000000	0.000000	0.000000	36.965448	-6.864389	-12.896214	1.000000	
1031	0.000000	0.000000	0.000000	37.094653	-7.006874	-13.082457	1.000000	
1032	0.000000	0.000000	0.000000	37.333034	-7.212621	-13.342418	1.000000	
1033	0.000000	0.000000	0.000000	37.515371	-7.371286	-13.557138	1.000000	
1034	0.000000	0.000000	0.000000	37.655985	-7.468708	-13.679943	1.000000	
[LToes]
#Fr	Tx	Ty	Tz	Rx	Ry	Rz	SF
1028	0.000000	0.000000	0.000000	-7.346324	0.000000	-0.000000	1.000000	
1029	0.000000	0.000000	0.000000	-7.166119	0.000000	-0.000000	1.000000	
1030	0.000000	0.000000	0.000000	-7.184203	0.000000	-0.000000	1.000000	
1031	0.000000	0.000000	0.000000	-7.278491	0.000000	-0.000000	1.000000	
1032	0.000000	0.000000	0.000000	-7.449270	0.000000	-0.000000	1.000000	
1033	0.000000	0.000000	0.000000	-7.576781	0.000000	-0.000000	1.000000	
1034	0.000000	0.000000	0.000000	-7.657018	0.000000	-0.000000	1.000000	
